<?xml version="1.0" encoding="UTF-8" standalone="no"?>
<svg
   xmlns:dc="http://purl.org/dc/elements/1.1/"
   xmlns:cc="http://creativecommons.org/ns#"
   xmlns:rdf="http://www.w3.org/1999/02/22-rdf-syntax-ns#"
   xmlns:svg="http://www.w3.org/2000/svg"
   xmlns="http://www.w3.org/2000/svg"
   xmlns:sodipodi="http://sodipodi.sourceforge.net/DTD/sodipodi-0.dtd"
   xmlns:inkscape="http://www.inkscape.org/namespaces/inkscape"
   width="2012.6968mm"
   height="731.68329mm"
   viewBox="0 0 2012.6968 731.68329"
   version="1.1"
   id="svg8"
   inkscape:version="1.0.2 (e86c8708, 2021-01-15)"
   sodipodi:docname="head-path.svg">
  <defs
     id="defs2" />
  <sodipodi:namedview
     id="base"
     pagecolor="#ffffff"
     bordercolor="#666666"
     borderopacity="1.0"
     inkscape:pageopacity="0.0"
     inkscape:pageshadow="2"
     inkscape:zoom="0.0875"
     inkscape:cx="4650.2753"
     inkscape:cy="2069.0226"
     inkscape:document-units="mm"
     inkscape:current-layer="svg8"
     inkscape:document-rotation="0"
     showgrid="false"
     inkscape:window-width="1918"
     inkscape:window-height="1027"
     inkscape:window-x="1794"
     inkscape:window-y="25"
     inkscape:window-maximized="0" />
  <path
     id="path857"
     d="m 1233.6979,10.385312 c -4.054,96.596008 -8.113,193.191998 -12.161,289.789008 -317.72703,-42.845 -660.55702,25.933 -917.78302,222.99099 -94.492,72.38901 -191.749,140.306 -289.509014,208.51801 -2.926,-131.05701 -23.7690005,-273.76101 -9.0140005,-403.719 1.353,-11.916 -2.412,-19.585 3.682,-27.748 13.1040105,-17.555 64.6490105,-30.488 84.3190105,-39.764 68.606004,-32.35401 137.105004,-64.945 205.820004,-97.066 212.209,-99.199009 441.584,-153.603998 675.62399,-162.0159877 86.39603,-3.10501 173.05603,-0.16602 259.02203,9.0149797 z"
     fill="#ffce00" />
  <path
     id="path835"
     d="m 718.28886,326.80932 c 97.54601,-24.374 201.317,-37.953 309.05804,-38.9 66.276,-0.579 131.18,3.646 194.19,12.265 5.936,-41.06101 21.851,-144.67601 44.334,-286.086988 C 1186.9279,4.1823323 1105.8739,-0.65067773 1023.2149,0.07033227 986.07986,0.39531227 949.30586,1.8363223 912.92986,4.3513023 809.68187,32.116321 669.71385,100.0533 657.02885,200.44531 c -1.371,10.838 -6.44097,63.10401 36.16001,105.74801 7.79602,7.79999 16.13202,14.625 25.1,20.616 z"
     fill="#ffb700" />
  <path
     id="path833"
     d="m 1265.8709,14.087332 c 142.514,23.450979 391.7939,84.623989 556.644,169.996988 0,0 156.1599,81.916 156.1599,81.916 -27.6399,73.08 52.3301,204.482 30.0501,278.89 -7.78,25.942 -55.07,54.94701 -54.98,81.61 0,0 -236.23,-145.067 -236.23,-145.067 -139.21,-91.731 -311.597,-154.959 -495.96,-181.25799 -184.363,-26.29901 -98.198,-309.5390177 44.316,-286.087998 z"
     fill="#0c93f4" />
  <metadata
     id="metadata855">
    <rdf:RDF>
      <cc:Work
         rdf:about="">
        <dc:title></dc:title>
      </cc:Work>
    </rdf:RDF>
  </metadata>
</svg>
