<?xml version="1.0" encoding="UTF-8" standalone="no"?>
<svg
   xmlns:dc="http://purl.org/dc/elements/1.1/"
   xmlns:cc="http://creativecommons.org/ns#"
   xmlns:rdf="http://www.w3.org/1999/02/22-rdf-syntax-ns#"
   xmlns:svg="http://www.w3.org/2000/svg"
   xmlns="http://www.w3.org/2000/svg"
   xmlns:sodipodi="http://sodipodi.sourceforge.net/DTD/sodipodi-0.dtd"
   xmlns:inkscape="http://www.inkscape.org/namespaces/inkscape"
   width="284.85205mm"
   height="284.22678mm"
   viewBox="0 0 284.85205 284.22678"
   version="1.1"
   id="svg8"
   inkscape:version="1.0.2 (e86c8708, 2021-01-15)"
   sodipodi:docname="headspace-rotate-face.svg">
  <defs
     id="defs2" />
  <sodipodi:namedview
     id="base"
     pagecolor="#ffffff"
     bordercolor="#666666"
     borderopacity="1.0"
     inkscape:pageopacity="0.0"
     inkscape:pageshadow="2"
     inkscape:zoom="0.35"
     inkscape:cx="735.73977"
     inkscape:cy="656.19407"
     inkscape:document-units="mm"
     inkscape:current-layer="svg8"
     inkscape:document-rotation="0"
     showgrid="false"
     inkscape:window-width="1252"
     inkscape:window-height="1027"
     inkscape:window-x="2010"
     inkscape:window-y="25"
     inkscape:window-maximized="0" />
  <path
     id="path839"
     d="m 0.852056,142.22677 c 0,-78.423991 63.575997,-141.99999 141.999994,-141.99999 78.42401,0 142,63.575999 142,141.99999 0,78.42401 -63.57599,142 -142,142 -78.423997,0 -141.999994,-63.57599 -141.999994,-142 z"
     fill="#ff7e1d"
     style="fill:#ff7ebf;fill-opacity:1" />
  <path
     id="path837"
     d="M 49.233003,141.99999 C 49.233003,71.971997 99.927009,13.788993 166.617,2.131996 158.62101,0.734001 150.396,0 142.00001,0 63.576013,0 0,63.575998 0,141.99999 c 0,78.42401 63.576013,142 142.00001,142 8.39599,0 16.621,-0.734 24.61699,-2.13199 C 99.927009,270.21099 49.233003,212.02799 49.233003,141.99999 Z"
     fill="#de6d17"
     style="fill:#de6d9f;fill-opacity:1" />
  <path
     id="path847"
     d="m 160.24328,78.867725 c -1.56581,6.552982 0.89295,13.688752 6.7466,17.787529 5.85366,4.098776 13.40003,3.968676 19.02228,0.256037"
     stroke-linecap="round"
     stroke-linejoin="round"
     fill-opacity="0"
     stroke="#413d45"
     stroke-opacity="1"
     stroke-width="8" />
  <path
     id="path849"
     d="m 145.94767,33.143161 c 7.46357,-4.928361 17.47968,-5.100479 25.25016,0.340467 7.77048,5.440947 11.03445,14.911886 8.95599,23.610937"
     stroke="#413d45"
     stroke-linecap="round"
     stroke-linejoin="round"
     fill-opacity="0"
     stroke-opacity="1"
     stroke-width="8" />
  <path
     id="path849-6"
     d="m 206.30478,74.790926 c 7.46356,-4.92836 17.47968,-5.100479 25.25016,0.340467 7.77047,5.44094 11.03444,14.91188 8.95599,23.610933"
     stroke="#413d45"
     stroke-linecap="round"
     stroke-linejoin="round"
     fill-opacity="0"
     stroke-opacity="1"
     stroke-width="8" />
  <metadata
     id="metadata898">
    <rdf:RDF>
      <cc:Work
         rdf:about="">
        <dc:title></dc:title>
      </cc:Work>
    </rdf:RDF>
  </metadata>
</svg>
