<svg id="Layer_1" data-name="Layer 1" xmlns="http://www.w3.org/2000/svg" viewBox="0 0 1160 560"><defs><style>.cls-1{fill:#ffcd00;}.cls-2{fill:#f9f5f3;}.cls-3{fill:#ffb600;}.cls-4{fill:#0c6ff8;}.cls-5{fill:#ff9800;}.cls-6{fill:#ffe04f;}.cls-7{fill:#d9d6d4;}.cls-8{fill:#32a9ff;}.cls-9{fill:#e9e6e3;}</style></defs><title>visual-dotcom_category_2ndhero_desktop-how_to_be_more_empathetic-202000805-kh</title><rect class="cls-1" width="1160" height="560"/><path class="cls-2" d="M1160,0H746.26a52.65,52.65,0,0,0,11,20.6l68.83,79.62L659.06,110.65C586.25,63.43,511.61,52,485.61,86.58,457.06,124.52,498,203.49,577,263s166.25,76.94,194.8,39c13.47-17.9,11.47-44.93-2.69-74.74l139.36-31.74,104,120.3.26.3a37.57,37.57,0,0,0,49.78,5.67L1160,253.33Z"/><path class="cls-3" d="M726.62,477.64c0,2-61.07,3.67-136.41,3.67s-136.41-1.64-136.41-3.67S514.88,474,590.21,474s136.41,1.65,136.41,3.68"/><path class="cls-4" d="M612.1,365.49h0a12.27,12.27,0,0,1-11-17.76l9.14-18.28a2,2,0,0,1,3.66,0l9.14,18.28a12.27,12.27,0,0,1-11,17.76"/><path class="cls-3" d="M622.52,428l-.11-.67a14.1,14.1,0,0,0-16.31-11.47l-.66.11a22.92,22.92,0,0,0-17,13.28v0c-2.28,5.75-4.47-1.92-4.47-1.92v0a227.51,227.51,0,0,0-11.45-30.12L558,404a214.6,214.6,0,0,1,19.23,74.2,3.32,3.32,0,0,0,3.31,3.1h9.67a3,3,0,0,0,3-3.19c-.31-4.58-.78-9.15-1.37-13.72,0-.09,0-.17,0-.27-.58-6.19,4.09-8.08,6.41-8.64l5.61-1A22.91,22.91,0,0,0,622.52,428Z"/><path class="cls-5" d="M568.43,431.2a109.73,109.73,0,0,0,5.63-22.06L560,408.37A211.34,211.34,0,0,1,568.43,431.2Z"/><path class="cls-6" d="M592.43,347.48a36.24,36.24,0,0,0-17.36-1.23c-2.43-5.83-12.51-10.2-24.59-10.2-13.66,0-24.78,5.6-25.13,12.58a29.67,29.67,0,0,0-10.72.29c-13.82,2.92-23,14.75-20.55,26.42a19.45,19.45,0,0,0,7.79,11.71,17.7,17.7,0,0,0-1.59,7.28c0,13.4,15.6,24.26,34.84,24.26a44.87,44.87,0,0,0,22-5.47,40,40,0,0,0,18.48,4.35c17.76,0,32.16-10.7,32.16-23.91a18.32,18.32,0,0,0-1.51-7.25,17.64,17.64,0,0,0,7.48-9.48C617.34,365.44,607.79,352.3,592.43,347.48Zm-34.77,13.88a18.55,18.55,0,0,0,1.86,11.51,34.85,34.85,0,0,0-3.76,1.91,42.23,42.23,0,0,0-11.41-3.85,18.75,18.75,0,0,0-.24-6.15,19.24,19.24,0,0,0-1.11-3.47,47.26,47.26,0,0,0,7.48.58A48.58,48.58,0,0,0,557.66,361.36Z"/><path class="cls-7" d="M538.28,125.09a10,10,0,1,1-10-10,10,10,0,0,1,10,10"/><path class="cls-7" d="M611.44,141.87a10,10,0,1,1-10-10,10,10,0,0,1,10,10"/><path class="cls-7" d="M568.66,189.58a10,10,0,1,1-10-10,10,10,0,0,1,10,10"/><path class="cls-7" d="M632.12,205.22a10,10,0,1,1-10-10,10,10,0,0,1,10,10"/><path class="cls-7" d="M723.23,276.61a10,10,0,1,1-10-10,10,10,0,0,1,10,10"/><path class="cls-7" d="M656.69,262.41a10,10,0,1,1-10-10,10,10,0,0,1,10,10"/><path class="cls-7" d="M702.07,212.11a10,10,0,1,1-10-10,10,10,0,0,1,10,10"/><path class="cls-5" d="M590.21,447.46a2.63,2.63,0,0,1-1.93-4.41l20-21.68a2.63,2.63,0,1,1,3.86,3.56l-20,21.68A2.61,2.61,0,0,1,590.21,447.46Z"/><path class="cls-8" d="M558,312h0a32.73,32.73,0,0,1-29.27-47.35l24.38-48.76a5.47,5.47,0,0,1,9.78,0l24.38,48.76A32.73,32.73,0,0,1,558,312"/><path class="cls-5" d="M583.1,371.6c0,8.93-13.37,16.17-29.85,16.17s-29.85-7.24-29.85-16.17,13.37-16.17,29.85-16.17,29.85,7.24,29.85,16.17"/><path class="cls-4" d="M587.3,264.62l-12.57-25.13c-10.81,8.07-21.17,16.72-29.59,27.2A80,80,0,0,0,529.92,296a32.71,32.71,0,0,0,57.38-31.35Z"/><path class="cls-9" d="M769.12,227.23,884.21,201h0c-43.59,9.92-100.08-.36-137.1-9.73A213.94,213.94,0,0,1,769.12,227.23Z"/></svg>