<svg width="1160" height="560" viewBox="0 0 1160 560" fill="none" xmlns="http://www.w3.org/2000/svg">
<g clip-path="url(#clip0)">
<path d="M1135.87 -297.19L1255 104.36C1255.62 106.439 1255.74 108.634 1255.36 110.77C1254.98 112.906 1254.11 114.924 1252.81 116.662C1251.51 118.401 1249.83 119.812 1247.89 120.784C1245.95 121.756 1243.81 122.261 1241.64 122.26H1000.84C998.662 122.261 996.514 121.752 994.568 120.772C992.623 119.793 990.934 118.371 989.638 116.62C988.341 114.87 987.474 112.84 987.104 110.693C986.735 108.546 986.874 106.343 987.51 104.26L1109.17 -297.27C1113.17 -310.5 1131.93 -310.45 1135.87 -297.19Z" fill="#352587"/>
<path d="M1137 -446.34L1265.14 -14.34C1265.82 -12.0966 1265.96 -9.72545 1265.56 -7.41678C1265.15 -5.10811 1264.21 -2.92614 1262.82 -1.04584C1261.42 0.834463 1259.6 2.36079 1257.5 3.41071C1255.41 4.46063 1253.09 5.00493 1250.75 5H991.68C989.338 5.00072 987.028 4.4529 984.935 3.40042C982.843 2.34794 981.026 0.820036 979.63 -1.06088C978.234 -2.9418 977.298 -5.12347 976.897 -7.43115C976.496 -9.73883 976.641 -12.1084 977.32 -14.35L1108.25 -446.35C1112.57 -460.59 1132.75 -460.53 1136.98 -446.27" fill="#352587"/>
<path d="M-218.48 -125.35H1320.81V577.37H-218.48V-125.35Z" fill="#2B1A72"/>
<path d="M188.71 419.33H497.68V556.34H188.71V419.33Z" fill="#352587"/>
<path d="M29.45 141.8C71.534 141.795 112.731 153.896 148.128 176.659C183.524 199.422 211.626 231.886 229.08 270.18C235.375 283.834 245.501 295.365 258.225 303.373C270.95 311.381 285.727 315.521 300.76 315.29H302.56C324.817 315.389 346.659 321.32 365.909 332.492C385.159 343.664 401.144 359.687 412.271 378.963C423.398 398.239 429.278 420.095 429.325 442.352C429.372 464.609 423.583 486.489 412.537 505.812C401.491 525.135 385.573 541.224 366.37 552.477C347.167 563.729 325.35 569.752 303.094 569.944C280.838 570.136 258.92 564.491 239.525 553.571C220.131 542.652 203.938 526.839 192.56 507.71C158.832 545.24 113.196 569.994 63.3446 577.799C13.4933 585.605 -37.5247 575.984 -81.11 550.56V171.67C-47.5743 152.054 -9.41144 141.742 29.44 141.8" fill="#352587"/>
<path d="M461.31 -2.07004C468.112 -2.06582 474.657 0.528328 479.614 5.1851C484.572 9.84187 487.57 16.2118 488 23C488.08 24.25 488.13 25.5 488.14 26.77C488.296 38.9295 485.518 50.9473 480.042 61.8052C474.567 72.6632 466.555 82.0414 456.685 89.1452C446.815 96.249 435.378 100.869 423.344 102.614C411.309 104.359 399.031 103.178 387.55 99.17C381.798 97.1861 375.61 96.8263 369.666 98.13C363.723 99.4337 358.254 102.351 353.86 106.56C332.566 126.847 304.271 138.144 274.86 138.1C244.716 138.098 215.785 126.231 194.321 105.067C172.857 83.9025 160.586 55.1405 160.16 25C160.16 24.9 160.16 24.81 160.16 24.72C160.144 21.1999 160.825 17.7116 162.164 14.4561C163.503 11.2006 165.473 8.24229 167.961 5.75184C170.448 3.26139 173.404 1.28803 176.658 -0.0544467C179.912 -1.39692 183.4 -2.08195 186.92 -2.07004H461.31Z" fill="#1E1259"/>
<path d="M387 670.88C354.396 649.031 326.029 621.443 303.28 589.46C262.84 532.29 240.77 462.97 242.58 393.35C242.648 390.565 243.509 387.857 245.064 385.544C246.618 383.232 248.8 381.412 251.354 380.297C253.907 379.183 256.726 378.821 259.478 379.253C262.23 379.686 264.802 380.896 266.89 382.74C328.28 436.74 392.05 467.74 477.24 468.74C513.9 469.16 570.11 459.24 619.83 429.74C709.54 369.035 774.961 278.631 804.58 174.44C841.91 43.73 819 -89.93 752.43 -196.9C762.81 -194.567 773.197 -191.933 783.59 -189C1070.42 -107 1236.47 192 1154.48 478.82C1072.49 765.64 773.48 931.69 486.69 849.7C380.127 819.425 285.518 756.971 215.8 670.88H387Z" fill="#8251A8"/>
<path d="M282.61 556.34C259.044 513.345 245.452 465.6 242.84 416.64C264 469.86 288.7 518.87 325.9 556.34H282.61Z" fill="#613889"/>
<path d="M718.63 363.54C724.424 361.82 730.52 361.369 736.505 362.215C742.489 363.062 748.221 365.187 753.31 368.446C758.4 371.705 762.729 376.022 766.001 381.103C769.274 386.184 771.415 391.91 772.277 397.892C773.14 403.874 772.704 409.971 771 415.77C769.296 421.569 766.364 426.932 762.402 431.497C758.44 436.061 753.542 439.719 748.041 442.221C742.539 444.724 736.564 446.013 730.52 446H612.18C606.377 446.006 600.636 444.808 595.32 442.48C603.699 438.657 611.87 434.394 619.8 429.71C651.811 408.004 680.978 382.375 706.62 353.42C707.888 355.358 708.991 357.399 709.92 359.52C710.631 361.138 711.909 362.439 713.514 363.18C715.118 363.92 716.938 364.048 718.63 363.54Z" fill="#613889"/>
<path d="M877.52 524.14C885.641 525.163 893.666 526.835 901.52 529.14C910.234 531.717 919.557 531.335 928.032 528.053C936.506 524.771 943.654 518.774 948.36 511C963.848 485.501 986.505 465.131 1013.5 452.432C1040.5 439.734 1070.64 435.27 1100.16 439.598C1129.67 443.927 1157.26 456.856 1179.48 476.77C1201.69 496.685 1217.55 522.703 1225.06 551.575C1232.58 580.447 1231.42 610.893 1221.73 639.111C1212.05 667.329 1194.27 692.068 1170.6 710.24C1146.94 728.411 1118.45 739.208 1088.69 741.284C1058.93 743.359 1029.21 736.621 1003.26 721.91C994.341 749.298 977.818 773.585 955.619 791.938C933.42 810.292 906.461 821.955 877.885 825.567C849.309 829.179 820.295 824.592 794.227 812.34C768.159 800.088 746.112 780.677 730.658 756.37C715.205 732.063 706.981 703.864 706.946 675.06C706.911 646.257 715.067 618.037 730.462 593.693C745.857 569.349 767.856 549.884 793.894 537.569C819.932 525.254 848.935 520.597 877.52 524.14" fill="#B89FD1"/>
<path d="M1007.13 276.05H1008.68C1017.52 276.05 1023.31 282.84 1021.36 291.67C1019.28 301.09 1009.68 308.87 1000.36 308.87H938.23C922.85 308.87 913.73 296.41 917.85 281.03H979.93C982.152 281.03 984.351 280.578 986.394 279.703C988.437 278.828 990.28 277.546 991.813 275.937C993.345 274.328 994.535 272.424 995.31 270.341C996.085 268.258 996.428 266.04 996.32 263.82C996.257 262.591 996.052 261.372 995.71 260.19C1001.28 261.78 1004.62 266.69 1004.19 272.84C1004.13 273.252 1004.17 273.671 1004.29 274.067C1004.42 274.464 1004.63 274.828 1004.91 275.135C1005.19 275.441 1005.53 275.682 1005.92 275.84C1006.3 275.998 1006.71 276.07 1007.13 276.05V276.05Z" fill="#613889"/>
<path d="M979.93 281H917.79C913 281.003 908.291 279.771 904.116 277.422C899.942 275.074 896.443 271.688 893.959 267.593C891.476 263.497 890.09 258.831 889.936 254.043C889.783 249.256 890.866 244.51 893.082 240.264C895.299 236.018 898.573 232.415 902.588 229.803C906.603 227.192 911.224 225.66 916.004 225.356C920.784 225.052 925.562 225.986 929.876 228.068C934.19 230.15 937.894 233.309 940.63 237.24C940.902 237.643 941.264 237.976 941.687 238.215C942.11 238.453 942.582 238.59 943.068 238.614C943.553 238.639 944.037 238.55 944.481 238.354C944.926 238.159 945.319 237.863 945.63 237.49C947.636 235.167 950.254 233.453 953.186 232.545C956.118 231.637 959.247 231.57 962.215 232.353C965.183 233.136 967.871 234.736 969.975 236.972C972.078 239.208 973.51 241.99 974.11 245C974.27 245.895 974.737 246.706 975.431 247.293C976.124 247.881 977.001 248.209 977.91 248.22H979.47C983.108 248.204 986.654 249.364 989.581 251.526C992.507 253.688 994.657 256.737 995.71 260.22C996.052 261.403 996.257 262.621 996.32 263.85C996.42 266.065 996.07 268.277 995.292 270.353C994.513 272.428 993.322 274.325 991.79 275.928C990.258 277.531 988.418 278.806 986.379 279.678C984.341 280.55 982.147 281 979.93 281V281Z" fill="#B89FD1"/>
<path d="M573.37 324.38C578.001 324.181 582.632 324.745 587.08 326.05C588.771 326.558 590.59 326.432 592.195 325.696C593.8 324.959 595.082 323.663 595.8 322.05C599.081 314.551 604.477 308.171 611.327 303.691C618.177 299.211 626.185 296.825 634.37 296.825C642.555 296.825 650.563 299.211 657.413 303.691C664.263 308.171 669.659 314.551 672.94 322.05C673.655 323.664 674.934 324.961 676.538 325.698C678.142 326.434 679.96 326.56 681.65 326.05C687.441 324.342 693.532 323.899 699.51 324.752C705.487 325.606 711.211 327.735 716.293 330.995C721.375 334.255 725.697 338.571 728.964 343.648C732.231 348.726 734.368 354.447 735.23 360.423C736.091 366.399 735.657 372.491 733.957 378.285C732.257 384.078 729.33 389.439 725.376 394.002C721.422 398.565 716.532 402.224 711.039 404.73C705.546 407.237 699.578 408.533 693.54 408.53H575.2C564.15 408.599 553.516 404.32 545.594 396.617C537.672 388.913 533.097 378.403 532.857 367.356C532.617 356.308 536.73 345.61 544.31 337.569C551.89 329.529 562.328 324.791 573.37 324.38V324.38Z" fill="#A273C6"/>
<path d="M699.84 275.2L696.59 287.26L693.34 275.2C691.418 268.053 687.651 261.536 682.418 256.302C677.184 251.069 670.667 247.302 663.52 245.38L651.46 242.13L663.52 238.88C670.667 236.958 677.184 233.191 682.418 227.958C687.651 222.724 691.418 216.207 693.34 209.06L696.59 197L699.84 209.06C701.765 216.206 705.532 222.721 710.766 227.954C715.999 233.188 722.514 236.955 729.66 238.88L741.72 242.13L729.66 245.38C722.514 247.305 715.999 251.072 710.766 256.306C705.532 261.539 701.765 268.054 699.84 275.2V275.2Z" fill="#FFE14F"/>
<path d="M628.42 201.47L626.63 208.11L624.84 201.47C623.784 197.539 621.713 193.954 618.834 191.076C615.956 188.197 612.371 186.126 608.44 185.07L601.8 183.28L608.44 181.49C612.371 180.434 615.956 178.363 618.834 175.484C621.713 172.606 623.784 169.021 624.84 165.09L626.63 158.45L628.42 165.09C629.477 169.022 631.55 172.608 634.43 175.486C637.31 178.365 640.897 180.435 644.83 181.49L651.46 183.28L644.83 185.07C640.897 186.125 637.31 188.195 634.43 191.074C631.55 193.952 629.477 197.537 628.42 201.47V201.47Z" fill="#3A2A96"/>
</g>
<defs>
<clipPath id="clip0">
<rect width="1160" height="560" fill="white" transform="matrix(-1 0 0 1 1160 0)"/>
</clipPath>
</defs>
</svg>
